<svg version="1.1" viewBox="0.0 0.0 2203.259842519685 1718.1128608923884" fill="none" stroke="none" stroke-linecap="square" stroke-miterlimit="10" xmlns:xlink="http://www.w3.org/1999/xlink" xmlns="http://www.w3.org/2000/svg"><clipPath id="p.0"><path d="m0 0l2203.2598 0l0 1718.1129l-2203.2598 0l0 -1718.1129z" clip-rule="nonzero"/></clipPath><g clip-path="url(#p.0)"><path fill="#000000" fill-opacity="0.0" d="m0 0l2203.2598 0l0 1718.1129l-2203.2598 0z" fill-rule="evenodd"/><path fill="#000000" fill-opacity="0.0" d="m114.666664 346.66666l-91.1181 95.275604" fill-rule="evenodd"/><path stroke="#cc0000" stroke-width="4.0" stroke-linejoin="round" stroke-linecap="butt" stroke-dasharray="16.0,12.0" d="m114.666664 346.66666l-91.1181 95.275604" fill-rule="evenodd"/><path fill="#000000" fill-opacity="0.0" d="m23.532808 441.95013l2.614174 180.44092" fill-rule="evenodd"/><path stroke="#cc0000" stroke-width="4.0" stroke-linejoin="round" stroke-linecap="butt" stroke-dasharray="16.0,12.0" d="m23.532808 441.95013l2.614174 180.44092" fill-rule="evenodd"/><path fill="#000000" fill-opacity="0.0" d="m28.766405 625.00525l164.7559 117.66931" fill-rule="evenodd"/><path stroke="#cc0000" stroke-width="4.0" stroke-linejoin="round" stroke-linecap="butt" stroke-dasharray="16.0,12.0" d="m28.766405 625.00525l164.7559 117.66931" fill-rule="evenodd"/><path fill="#000000" fill-opacity="0.0" d="m196.0 746.6667c9.777771 16.222229 42.22223 58.444397 58.66667 97.33331c16.444443 38.888916 31.1111 100.888916 39.999985 136.0c8.8888855 35.111084 9.5555725 17.111084 13.3333435 74.666626c3.777771 57.555542 -2.444458 192.66675 9.3333435 270.66675c11.777771 78.0 38.888885 151.77771 61.333313 197.33325c22.444458 45.555542 51.555573 56.666748 73.33334 76.0c21.777771 19.333374 23.555542 30.444458 57.333344 40.0c33.77774 9.555542 70.44443 12.0 145.33334 17.333374c74.888855 5.333374 253.33331 12.222168 304.0 14.666626" fill-rule="evenodd"/><path stroke="#cc0000" stroke-width="4.0" stroke-linejoin="round" stroke-linecap="butt" stroke-dasharray="16.0,12.0" d="m196.0 746.6667c9.777771 16.222229 42.22223 58.444397 58.66667 97.33331c16.444443 38.888916 31.1111 100.888916 39.999985 136.0c8.8888855 35.111084 9.5555725 17.111084 13.3333435 74.666626c3.777771 57.555542 -2.444458 192.66675 9.3333435 270.66675c11.777771 78.0 38.888885 151.77771 61.333313 197.33325c22.444458 45.555542 51.555573 56.666748 73.33334 76.0c21.777771 19.333374 23.555542 30.444458 57.333344 40.0c33.77774 9.555542 70.44443 12.0 145.33334 17.333374c74.888855 5.333374 253.33331 12.222168 304.0 14.666626" fill-rule="evenodd"/><path fill="#000000" fill-opacity="0.0" d="m962.6667 1672.0l-1.322876 -62.677124" fill-rule="evenodd"/><path stroke="#cc0000" stroke-width="4.0" stroke-linejoin="round" stroke-linecap="butt" stroke-dasharray="16.0,12.0" d="m962.6667 1672.0l-1.322876 -62.677124" fill-rule="evenodd"/><path fill="#000000" fill-opacity="0.0" d="m964.0 1610.6666l260.0 2.677246" fill-rule="evenodd"/><path stroke="#cc0000" stroke-width="4.0" stroke-linejoin="round" stroke-linecap="butt" stroke-dasharray="16.0,12.0" d="m964.0 1610.6666l260.0 2.677246" fill-rule="evenodd"/><path fill="#000000" fill-opacity="0.0" d="m1224.0 1613.3334l-2.677124 -378.67725" fill-rule="evenodd"/><path stroke="#cc0000" stroke-width="4.0" stroke-linejoin="round" stroke-linecap="butt" stroke-dasharray="16.0,12.0" d="m1224.0 1613.3334l-2.677124 -378.67725" fill-rule="evenodd"/><path fill="#000000" fill-opacity="0.0" d="m1225.3334 1236.0l281.32275 1.322876" fill-rule="evenodd"/><path stroke="#cc0000" stroke-width="4.0" stroke-linejoin="round" stroke-linecap="butt" stroke-dasharray="16.0,12.0" d="m1225.3334 1236.0l281.32275 1.322876" fill-rule="evenodd"/><path fill="#000000" fill-opacity="0.0" d="m1508.0 1233.3334l1.322876 -65.322876" fill-rule="evenodd"/><path stroke="#cc0000" stroke-width="4.0" stroke-linejoin="round" stroke-linecap="butt" stroke-dasharray="16.0,12.0" d="m1508.0 1233.3334l1.322876 -65.322876" fill-rule="evenodd"/><path fill="#000000" fill-opacity="0.0" d="m1510.6666 1169.3334l396.0 214.67712" fill-rule="evenodd"/><path stroke="#cc0000" stroke-width="4.0" stroke-linejoin="round" stroke-linecap="butt" stroke-dasharray="16.0,12.0" d="m1510.6666 1169.3334l396.0 214.67712" fill-rule="evenodd"/><path fill="#000000" fill-opacity="0.0" d="m1914.6666 1384.0l266.67712 -366.6772" fill-rule="evenodd"/><path stroke="#cc0000" stroke-width="4.0" stroke-linejoin="round" stroke-linecap="butt" stroke-dasharray="16.0,12.0" d="m1914.6666 1384.0l266.67712 -366.6772" fill-rule="evenodd"/><path fill="#000000" fill-opacity="0.0" d="m1129.3334 188.0l1051.9999 829.3228" fill-rule="evenodd"/><path stroke="#cc0000" stroke-width="4.0" stroke-linejoin="round" stroke-linecap="butt" stroke-dasharray="16.0,12.0" d="m1129.3334 188.0l1051.9999 829.3228" fill-rule="evenodd"/><path fill="#000000" fill-opacity="0.0" d="m1130.6666 189.33333l-255.99994 -144.0" fill-rule="evenodd"/><path stroke="#cc0000" stroke-width="4.0" stroke-linejoin="round" stroke-linecap="butt" stroke-dasharray="16.0,12.0" d="m1130.6666 189.33333l-255.99994 -144.0" fill-rule="evenodd"/><path fill="#000000" fill-opacity="0.0" d="m874.6667 45.333332l-253.32288 446.67715" fill-rule="evenodd"/><path stroke="#cc0000" stroke-width="4.0" stroke-linejoin="round" stroke-linecap="butt" stroke-dasharray="16.0,12.0" d="m874.6667 45.333332l-253.32288 446.67715" fill-rule="evenodd"/><path fill="#000000" fill-opacity="0.0" d="m452.0 526.6667l169.35431 -34.64569" fill-rule="evenodd"/><path stroke="#cc0000" stroke-width="4.0" stroke-linejoin="round" stroke-linecap="butt" stroke-dasharray="16.0,12.0" d="m452.0 526.6667l169.35431 -34.64569" fill-rule="evenodd"/><path fill="#000000" fill-opacity="0.0" d="m450.66666 530.6667l-336.0 -182.67719" fill-rule="evenodd"/><path stroke="#cc0000" stroke-width="4.0" stroke-linejoin="round" stroke-linecap="butt" stroke-dasharray="16.0,12.0" d="m450.66666 530.6667l-336.0 -182.67719" fill-rule="evenodd"/></g></svg>