<svg version="1.1" viewBox="0.0 0.0 2203.259842519685 1718.1128608923884" fill="none" stroke="none" stroke-linecap="square" stroke-miterlimit="10" xmlns:xlink="http://www.w3.org/1999/xlink" xmlns="http://www.w3.org/2000/svg"><clipPath id="p.0"><path d="m0 0l2203.2598 0l0 1718.1129l-2203.2598 0l0 -1718.1129z" clip-rule="nonzero"/></clipPath><g clip-path="url(#p.0)"><path fill="#000000" fill-opacity="0.0" d="m0 0l2203.2598 0l0 1718.1129l-2203.2598 0z" fill-rule="evenodd"/><path fill="#000000" fill-opacity="0.0" d="m448.33334 531.6667l571.65356 336.66138" fill-rule="evenodd"/><path stroke="#cc0000" stroke-width="4.0" stroke-linejoin="round" stroke-linecap="butt" stroke-dasharray="16.0,12.0" d="m448.33334 531.6667l571.65356 336.66138" fill-rule="evenodd"/><path fill="#000000" fill-opacity="0.0" d="m1020.0 875.0l-83.33856 146.67719" fill-rule="evenodd"/><path stroke="#cc0000" stroke-width="4.0" stroke-linejoin="round" stroke-linecap="butt" stroke-dasharray="16.0,12.0" d="m1020.0 875.0l-83.33856 146.67719" fill-rule="evenodd"/><path fill="#000000" fill-opacity="0.0" d="m938.3333 1025.0l30.015747 31.653564" fill-rule="evenodd"/><path stroke="#cc0000" stroke-width="4.0" stroke-linejoin="round" stroke-linecap="butt" stroke-dasharray="16.0,12.0" d="m938.3333 1025.0l30.015747 31.653564" fill-rule="evenodd"/><path fill="#000000" fill-opacity="0.0" d="m970.0 1060.0l1.6693115 550.01575" fill-rule="evenodd"/><path stroke="#cc0000" stroke-width="4.0" stroke-linejoin="round" stroke-linecap="butt" stroke-dasharray="16.0,12.0" d="m970.0 1060.0l1.6693115 550.01575" fill-rule="evenodd"/><path fill="#000000" fill-opacity="0.0" d="m450.0 533.3333c-31.944458 4.166687 -143.61111 9.166687 -191.66666 25.0c-48.055573 15.833374 -80.55557 58.333374 -96.66667 70.0" fill-rule="evenodd"/><path stroke="#cc0000" stroke-width="4.0" stroke-linejoin="round" stroke-linecap="butt" stroke-dasharray="16.0,12.0" d="m450.0 533.3333c-31.944458 4.166687 -143.61111 9.166687 -191.66666 25.0c-48.055573 15.833374 -80.55557 58.333374 -96.66667 70.0" fill-rule="evenodd"/><path fill="#000000" fill-opacity="0.0" d="m165.0 633.3333c3.8888855 9.166687 9.722229 37.5 23.333328 55.0c13.6111145 17.5 48.611115 41.666687 58.333344 50.0" fill-rule="evenodd"/><path stroke="#cc0000" stroke-width="4.0" stroke-linejoin="round" stroke-linecap="butt" stroke-dasharray="16.0,12.0" d="m165.0 633.3333c3.8888855 9.166687 9.722229 37.5 23.333328 55.0c13.6111145 17.5 48.611115 41.666687 58.333344 50.0" fill-rule="evenodd"/><path fill="#000000" fill-opacity="0.0" d="m243.33333 738.3333c1.6666718 5.277771 3.3333435 18.333374 10.0 31.666687c6.6666718 13.333313 21.666672 34.166687 30.000015 48.333313c8.333313 14.166687 14.1666565 18.333374 20.0 36.666687c5.833313 18.333313 9.7221985 54.72223 15.0 73.33331c5.277771 18.611145 13.333313 26.666687 16.666656 38.333374c3.3333435 11.666626 3.6111145 2.5 3.3333435 31.666626c-0.2778015 29.166687 -4.166687 89.44452 -5.0 143.33331c-0.8333435 53.888916 -2.5 139.16675 0 180.0c2.5 40.833374 8.6111145 45.833374 15.0 65.0c6.3888855 19.166748 11.1111145 34.72229 23.333313 50.0c12.222229 15.277832 23.611115 30.833374 50.0 41.666748c26.388885 10.833252 80.2778 18.611084 108.33334 23.333252c28.055542 4.72229 39.444458 1.944458 60.0 5.0c20.555542 3.055542 39.166687 6.111206 63.333313 13.333374c24.166687 7.222168 55.0 23.333374 81.66669 30.0c26.666687 6.666626 53.055542 5.833374 78.33331 10.0c25.277771 4.166626 46.944458 6.111084 73.333374 15.0c26.388855 8.888916 70.83331 31.944458 85.0 38.333374" fill-rule="evenodd"/><path stroke="#cc0000" stroke-width="4.0" stroke-linejoin="round" stroke-linecap="butt" stroke-dasharray="16.0,12.0" d="m243.33333 738.3333c1.6666718 5.277771 3.3333435 18.333374 10.0 31.666687c6.6666718 13.333313 21.666672 34.166687 30.000015 48.333313c8.333313 14.166687 14.1666565 18.333374 20.0 36.666687c5.833313 18.333313 9.7221985 54.72223 15.0 73.33331c5.277771 18.611145 13.333313 26.666687 16.666656 38.333374c3.3333435 11.666626 3.6111145 2.5 3.3333435 31.666626c-0.2778015 29.166687 -4.166687 89.44452 -5.0 143.33331c-0.8333435 53.888916 -2.5 139.16675 0 180.0c2.5 40.833374 8.6111145 45.833374 15.0 65.0c6.3888855 19.166748 11.1111145 34.72229 23.333313 50.0c12.222229 15.277832 23.611115 30.833374 50.0 41.666748c26.388885 10.833252 80.2778 18.611084 108.33334 23.333252c28.055542 4.72229 39.444458 1.944458 60.0 5.0c20.555542 3.055542 39.166687 6.111206 63.333313 13.333374c24.166687 7.222168 55.0 23.333374 81.66669 30.0c26.666687 6.666626 53.055542 5.833374 78.33331 10.0c25.277771 4.166626 46.944458 6.111084 73.333374 15.0c26.388855 8.888916 70.83331 31.944458 85.0 38.333374" fill-rule="evenodd"/></g></svg>