<svg version="1.1" viewBox="0.0 0.0 1340.0 1937.0" fill="none" stroke="none" stroke-linecap="square" stroke-miterlimit="10" xmlns:xlink="http://www.w3.org/1999/xlink" xmlns="http://www.w3.org/2000/svg"><clipPath id="p.0"><path d="m0 0l1340.0 0l0 1937.0l-1340.0 0l0 -1937.0z" clip-rule="nonzero"/></clipPath><g clip-path="url(#p.0)"><path fill="#000000" fill-opacity="0.0" d="m0 0l1340.0 0l0 1937.0l-1340.0 0z" fill-rule="evenodd"/><path fill="#000000" fill-opacity="0.0" d="m10.293963 55.88189l-1.4803152 294.11023" fill-rule="evenodd"/><path stroke="#cc0000" stroke-width="4.0" stroke-linejoin="round" stroke-linecap="butt" stroke-dasharray="16.0,12.0" d="m10.293963 55.88189l-1.4803152 294.11023" fill-rule="evenodd"/><path fill="#000000" fill-opacity="0.0" d="m14.706037 51.46982l1233.8268 -2.9291344" fill-rule="evenodd"/><path stroke="#cc0000" stroke-width="4.0" stroke-linejoin="round" stroke-linecap="butt" stroke-dasharray="16.0,12.0" d="m14.706037 51.46982l1233.8268 -2.9291344" fill-rule="evenodd"/><path fill="#000000" fill-opacity="0.0" d="m1250.0 50.0l0 626.48816" fill-rule="evenodd"/><path stroke="#cc0000" stroke-width="4.0" stroke-linejoin="round" stroke-linecap="butt" stroke-dasharray="16.0,12.0" d="m1250.0 50.0l0 626.48816" fill-rule="evenodd"/><path fill="#000000" fill-opacity="0.0" d="m1250.0 677.94226l-213.7638 300.8189" fill-rule="evenodd"/><path stroke="#cc0000" stroke-width="4.0" stroke-linejoin="round" stroke-linecap="butt" stroke-dasharray="16.0,12.0" d="m1250.0 677.94226l-213.7638 300.8189" fill-rule="evenodd"/><path fill="#000000" fill-opacity="0.0" d="m1030.0 982.50134c-8.958435 2.5082397 -37.292236 7.942993 -53.75067 15.0494995c-16.458435 7.1064453 -31.041992 16.720337 -45.0 27.589417c-13.958008 10.869019 -26.873108 21.530518 -38.747986 37.625c-11.874939 16.094604 -25.209595 39.503174 -32.501343 58.941895c-7.291748 19.438843 -9.374451 16.932007 -11.249329 57.691162c-1.8748779 40.759155 0 155.71997 0 186.86389" fill-rule="evenodd"/><path stroke="#cc0000" stroke-width="4.0" stroke-linejoin="round" stroke-linecap="butt" stroke-dasharray="16.0,12.0" d="m1030.0 982.50134c-8.958435 2.5082397 -37.292236 7.942993 -53.75067 15.0494995c-16.458435 7.1064453 -31.041992 16.720337 -45.0 27.589417c-13.958008 10.869019 -26.873108 21.530518 -38.747986 37.625c-11.874939 16.094604 -25.209595 39.503174 -32.501343 58.941895c-7.291748 19.438843 -9.374451 16.932007 -11.249329 57.691162c-1.8748779 40.759155 0 155.71997 0 186.86389" fill-rule="evenodd"/><path fill="#000000" fill-opacity="0.0" d="m848.7507 1366.2494l-678.7402 -6.2678223" fill-rule="evenodd"/><path stroke="#cc0000" stroke-width="4.0" stroke-linejoin="round" stroke-linecap="butt" stroke-dasharray="16.0,12.0" d="m848.7507 1366.2494l-678.7402 -6.2678223" fill-rule="evenodd"/><path fill="#000000" fill-opacity="0.0" d="m12.501312 351.24933l101.25984 33.763794" fill-rule="evenodd"/><path stroke="#cc0000" stroke-width="4.0" stroke-linejoin="round" stroke-linecap="butt" stroke-dasharray="16.0,12.0" d="m12.501312 351.24933l101.25984 33.763794" fill-rule="evenodd"/><path fill="#000000" fill-opacity="0.0" d="m115.0 387.5013l1.2598419 107.49606" fill-rule="evenodd"/><path stroke="#cc0000" stroke-width="4.0" stroke-linejoin="round" stroke-linecap="butt" stroke-dasharray="16.0,12.0" d="m115.0 387.5013l1.2598419 107.49606" fill-rule="evenodd"/><path fill="#000000" fill-opacity="0.0" d="m120.0 492.5013l56.25197 0" fill-rule="evenodd"/><path stroke="#cc0000" stroke-width="4.0" stroke-linejoin="round" stroke-linecap="butt" stroke-dasharray="16.0,12.0" d="m120.0 492.5013l56.25197 0" fill-rule="evenodd"/><path fill="#000000" fill-opacity="0.0" d="m175.0 497.5013l-5.0078735 856.25195" fill-rule="evenodd"/><path stroke="#cc0000" stroke-width="4.0" stroke-linejoin="round" stroke-linecap="butt" stroke-dasharray="16.0,12.0" d="m175.0 497.5013l-5.0078735 856.25195" fill-rule="evenodd"/></g></svg>