<svg version="1.1" viewBox="0.0 0.0 709.0 1069.0" fill="none" stroke="none" stroke-linecap="square" stroke-miterlimit="10" xmlns:xlink="http://www.w3.org/1999/xlink" xmlns="http://www.w3.org/2000/svg"><clipPath id="p.0"><path d="m0 0l709.0 0l0 1069.0l-709.0 0l0 -1069.0z" clip-rule="nonzero"/></clipPath><g clip-path="url(#p.0)"><path fill="#000000" fill-opacity="0.0" d="m0 0l709.0 0l0 1069.0l-709.0 0z" fill-rule="evenodd"/><path fill="#000000" fill-opacity="0.0" d="m161.41995 58.065617l-1.2598419 259.02362" fill-rule="evenodd"/><path stroke="#cc0000" stroke-width="4.0" stroke-linejoin="round" stroke-linecap="butt" stroke-dasharray="16.0,12.0" d="m161.41995 58.065617l-1.2598419 259.02362" fill-rule="evenodd"/><path fill="#000000" fill-opacity="0.0" d="m160.97638 323.57742l13.007874 242.29922" fill-rule="evenodd"/><path stroke="#cc0000" stroke-width="4.0" stroke-linejoin="round" stroke-linecap="butt" stroke-dasharray="16.0,12.0" d="m160.97638 323.57742l13.007874 242.29922" fill-rule="evenodd"/><path fill="#000000" fill-opacity="0.0" d="m173.98425 565.853l-43.08661 2.456665" fill-rule="evenodd"/><path stroke="#cc0000" stroke-width="4.0" stroke-linejoin="round" stroke-linecap="butt" stroke-dasharray="16.0,12.0" d="m173.98425 565.853l-43.08661 2.456665" fill-rule="evenodd"/><path fill="#000000" fill-opacity="0.0" d="m131.70604 569.105l0 167.4961" fill-rule="evenodd"/><path stroke="#cc0000" stroke-width="4.0" stroke-linejoin="round" stroke-linecap="butt" stroke-dasharray="16.0,12.0" d="m131.70604 569.105l0 167.4961" fill-rule="evenodd"/><path fill="#000000" fill-opacity="0.0" d="m129.26772 739.0236l459.37012 280.4724" fill-rule="evenodd"/><path stroke="#cc0000" stroke-width="4.0" stroke-linejoin="round" stroke-linecap="butt" stroke-dasharray="16.0,12.0" d="m129.26772 739.0236l459.37012 280.4724" fill-rule="evenodd"/><path fill="#000000" fill-opacity="0.0" d="m590.2441 805.6903l2.456726 213.00787" fill-rule="evenodd"/><path stroke="#cc0000" stroke-width="4.0" stroke-linejoin="round" stroke-linecap="butt" stroke-dasharray="16.0,12.0" d="m590.2441 805.6903l2.456726 213.00787" fill-rule="evenodd"/><path fill="#000000" fill-opacity="0.0" d="m591.05774 804.0656l80.50397 -32.503906" fill-rule="evenodd"/><path stroke="#cc0000" stroke-width="4.0" stroke-linejoin="round" stroke-linecap="butt" stroke-dasharray="16.0,12.0" d="m591.05774 804.0656l80.50397 -32.503906" fill-rule="evenodd"/><path fill="#000000" fill-opacity="0.0" d="m672.35693 766.6667l-0.81884766 -94.299255" fill-rule="evenodd"/><path stroke="#cc0000" stroke-width="4.0" stroke-linejoin="round" stroke-linecap="butt" stroke-dasharray="16.0,12.0" d="m672.35693 766.6667l-0.81884766 -94.299255" fill-rule="evenodd"/><path fill="#000000" fill-opacity="0.0" d="m672.3583 673.1706c-6.232727 -7.3171387 -23.710876 -22.358276 -37.396362 -43.902893c-13.685425 -21.544617 -32.927795 -58.535828 -44.71649 -85.36481c-11.788757 -26.82898 -19.918213 -56.909454 -26.015747 -75.60892c-6.097595 -18.699493 -7.723999 -19.921265 -10.56958 -36.58795c-2.845581 -16.666656 -5.826294 -39.42868 -6.5039062 -63.41205c-0.6776123 -23.983398 1.8963013 -61.246735 2.4382935 -80.48819c0.5419922 -19.241486 1.897644 -23.578308 0.81365967 -34.960648c-1.0839844 -11.382324 -1.3556519 -16.802261 -7.317566 -33.33333c-5.961975 -16.531052 -22.085754 -48.237976 -28.454102 -65.85301c-6.3683167 -17.615051 -10.433075 -22.493011 -9.75589 -39.837273c0.67715454 -17.344276 11.515717 -53.523624 13.818878 -64.22835" fill-rule="evenodd"/><path stroke="#cc0000" stroke-width="4.0" stroke-linejoin="round" stroke-linecap="butt" stroke-dasharray="16.0,12.0" d="m672.3583 673.1706c-6.232727 -7.3171387 -23.710876 -22.358276 -37.396362 -43.902893c-13.685425 -21.544617 -32.927795 -58.535828 -44.71649 -85.36481c-11.788757 -26.82898 -19.918213 -56.909454 -26.015747 -75.60892c-6.097595 -18.699493 -7.723999 -19.921265 -10.56958 -36.58795c-2.845581 -16.666656 -5.826294 -39.42868 -6.5039062 -63.41205c-0.6776123 -23.983398 1.8963013 -61.246735 2.4382935 -80.48819c0.5419922 -19.241486 1.897644 -23.578308 0.81365967 -34.960648c-1.0839844 -11.382324 -1.3556519 -16.802261 -7.317566 -33.33333c-5.961975 -16.531052 -22.085754 -48.237976 -28.454102 -65.85301c-6.3683167 -17.615051 -10.433075 -22.493011 -9.75589 -39.837273c0.67715454 -17.344276 11.515717 -53.523624 13.818878 -64.22835" fill-rule="evenodd"/><path fill="#000000" fill-opacity="0.0" d="m162.60104 54.472443l351.21262 -2.4251976" fill-rule="evenodd"/><path stroke="#cc0000" stroke-width="4.0" stroke-linejoin="round" stroke-linecap="butt" stroke-dasharray="16.0,12.0" d="m162.60104 54.472443l351.21262 -2.4251976" fill-rule="evenodd"/></g></svg>